<?xml version="1.0" standalone="no"?>
<!DOCTYPE svg PUBLIC "-//W3C//DTD SVG 20010904//EN"
 "http://www.w3.org/TR/2001/REC-SVG-20010904/DTD/svg10.dtd">
<svg version="1.0" xmlns="http://www.w3.org/2000/svg"
 width="100.000000pt" height="100.000000pt" viewBox="0 0 100.000000 100.000000"
 preserveAspectRatio="xMidYMid meet">
<metadata>
Created by potrace 1.14, written by Peter Selinger 2001-2017
</metadata>
<g transform="translate(0.000000,100.000000) scale(0.100000,-0.100000)"
fill="#000000" stroke="none">
<path d="M183 650 c-51 -21 -60 -96 -17 -141 15 -16 32 -29 37 -29 5 0 24 -7
43 -16 25 -12 34 -23 34 -40 0 -21 -5 -24 -34 -24 -22 0 -42 8 -58 25 -25 25
-26 25 -49 6 -22 -18 -23 -19 -5 -46 34 -52 114 -69 175 -37 45 22 63 64 47
112 -9 27 -22 40 -66 61 -77 38 -86 47 -66 67 15 15 19 15 51 -2 29 -16 39
-17 61 -7 31 14 27 29 -16 59 -35 23 -95 29 -137 12z"/>
<path d="M419 645 c-24 -13 -59 -68 -59 -94 0 -6 7 -11 15 -12 55 -4 59 -3 65
20 8 34 45 46 69 22 33 -33 24 -46 -127 -203 l-36 -38 131 0 132 0 3 27 c3 27
5 28 68 28 63 0 65 -1 68 -28 3 -24 7 -27 43 -27 35 0 39 3 39 25 0 14 5 26
10 26 6 1 16 2 23 3 6 0 13 16 15 34 3 28 0 32 -22 32 -25 0 -25 0 -24 91 1
152 -29 147 -147 -24 l-80 -116 -59 -1 -60 0 52 48 c60 54 76 93 57 140 -24
56 -115 80 -176 47z m338 -192 c-3 -2 -17 -3 -31 -1 l-25 3 27 42 27 43 3 -41
c2 -23 1 -43 -1 -46z"/>
</g>
</svg>
